<svg width="113" height="37" viewBox="0 0 113 37" fill="none" xmlns="http://www.w3.org/2000/svg">
<path d="M48.0725 24.4129H47.3353V19.2549H52.8643C54.693 19.2549 56.1817 17.7668 56.1817 15.9391C56.1817 14.1113 54.693 12.6232 52.8643 12.6232H47.3353V11.8864H52.8643C55.1003 11.8864 56.9189 13.7042 56.9189 15.9391C56.9189 18.1739 55.1003 19.9918 52.8643 19.9918H48.0725V24.4129Z" fill="#001A33"/>
<path d="M89.7244 24.4129C88.0498 24.4129 86.4763 23.7608 85.2938 22.5781C84.1106 21.3962 83.4582 19.8234 83.4582 18.1496C83.4582 16.4759 84.1106 14.903 85.2938 13.7211C86.4763 12.5385 88.0498 11.8864 89.7244 11.8864C91.3989 11.8864 92.9725 12.5385 94.155 13.7211L94.4156 13.9816L93.8944 14.5026L93.6338 14.2421C92.5895 13.1976 91.2017 12.6232 89.7244 12.6232C88.247 12.6232 86.8593 13.1976 85.8154 14.2424C84.77 15.2858 84.1954 16.673 84.1954 18.1496C84.1954 19.6263 84.77 21.0134 85.8154 22.0568C86.8593 23.1017 88.247 23.676 89.7244 23.676C91.2017 23.676 92.5895 23.1017 93.6334 22.0568L93.894 21.7963L94.4152 22.3173L94.1546 22.5778C92.9725 23.7608 91.3989 24.4129 89.7244 24.4129Z" fill="#001A33"/>
<path d="M68.7141 11.8864H59.8677V12.6232H68.7141V11.8864Z" fill="#001A33"/>
<path d="M68.7141 17.7812H59.8677V18.518H68.7141V17.7812Z" fill="#001A33"/>
<path d="M68.7141 23.676H59.8677V24.4129H68.7141V23.676Z" fill="#001A33"/>
<path d="M78.8982 24.4129H79.7607L77.1072 19.9918H77.192C79.4279 19.9918 81.2466 18.1739 81.2466 15.9391C81.2466 13.7042 79.4279 11.8864 77.192 11.8864H71.663V12.6232H77.192C79.0206 12.6232 80.5094 14.1113 80.5094 15.9391C80.5094 17.7668 79.0206 19.2549 77.192 19.2549H71.663V19.9918H76.2447L78.8982 24.4129Z" fill="#001A33"/>
<path d="M100.661 17.0068L97.5874 11.8864H96.7278L100.231 17.7237L100.661 17.0068Z" fill="#001A33"/>
<path d="M101.888 24.4129V19.2564L106.311 11.8864H105.452L101.151 19.0519V24.4129H101.888Z" fill="#001A33"/>
<path d="M113 11.8864H112.631V15.5706H113V11.8864Z" fill="#0080FF"/>
<path d="M107.471 15.5706H107.9L109.683 12.6029L110.801 14.4653H109.683H109.498V14.8338H109.683H111.023L111.465 15.5706H111.894L109.683 11.8864L107.471 15.5706Z" fill="#0080FF"/>
<path d="M0 4.63856C0 2.07676 2.07676 0 4.63856 0H31.6002C34.162 0 36.2388 2.07676 36.2388 4.63856V31.6002C36.2388 34.162 34.162 36.2388 31.6002 36.2388H4.63856C2.07676 36.2388 0 34.162 0 31.6002V4.63856Z" fill="#0080FF"/>
<path d="M16.5249 36.1663L9.05969 29.5709L10.2918 20.6561H14.6405H19.9313L22.9754 19.7864L24.9323 17.902L25.8745 15.5102V12.4662L24.3525 9.78451V8.04504L36.2388 19.9314V31.8902C36.1421 32.4941 35.7604 33.9195 35.0067 34.7893C34.2529 35.659 32.4216 36.0697 31.6002 36.1663H16.5249Z" fill="url(#paint0_linear_67_15599)"/>
<path d="M10.8828 29.136H9.56702V20.0038H19.4351C22.6988 20.0038 25.356 17.3692 25.356 14.1331C25.356 10.8971 22.6988 8.26242 19.4351 8.26242H9.56702V6.95782H19.4351C23.4258 6.95782 26.6717 10.1763 26.6717 14.1331C26.6717 18.0899 23.4258 21.3084 19.4351 21.3084H10.8828V29.136Z" fill="white"/>
<path fill-rule="evenodd" clip-rule="evenodd" d="M11.4626 29.7158H8.98718V19.424H19.4351C22.3832 19.424 24.7761 17.0443 24.7761 14.1332C24.7761 11.222 22.3832 8.84229 19.4351 8.84229H8.98718V6.37805H19.4351C23.7413 6.37805 27.2515 9.85144 27.2515 14.1332C27.2515 18.4149 23.7413 21.8882 19.4351 21.8882H11.4626V29.7158ZM10.8827 29.136V21.3084H19.4351C23.4258 21.3084 26.6717 18.09 26.6717 14.1332C26.6717 10.1763 23.4258 6.95787 19.4351 6.95787H9.567V8.26247H19.4351C22.6988 8.26247 25.356 10.8971 25.356 14.1332C25.356 17.3692 22.6988 20.0038 19.4351 20.0038H9.567V29.136H10.8827Z" fill="white"/>
<defs>
<linearGradient id="paint0_linear_67_15599" x1="9.56703" y1="8.33496" x2="34.4268" y2="34.7168" gradientUnits="userSpaceOnUse">
<stop stop-color="#00488F"/>
<stop offset="1" stop-color="#0080FF"/>
</linearGradient>
</defs>
</svg>
