<svg width="127" height="25" viewBox="0 0 127 25" fill="none" xmlns="http://www.w3.org/2000/svg">
<path d="M1.4258 24.5H0V14.6176H10.6935C14.2302 14.6176 17.1096 11.7666 17.1096 8.26471C17.1096 4.76282 14.2302 1.91176 10.6935 1.91176H0V0.5H10.6935C15.0179 0.5 18.5354 3.98282 18.5354 8.26471C18.5354 12.5466 15.0179 16.0294 10.6935 16.0294H1.4258V24.5Z" fill="#001A33"/>
<path d="M81.9833 24.5C78.7446 24.5 75.7012 23.2506 73.4142 20.9847C71.1258 18.7202 69.864 15.7068 69.864 12.5C69.864 9.29318 71.1258 6.27976 73.4142 4.01529C75.7012 1.74941 78.7446 0.5 81.9833 0.5C85.222 0.5 88.2653 1.74941 90.5523 4.01529L91.0563 4.51435L90.0483 5.51247L89.5443 5.01341C87.5246 3.01223 84.8406 1.91176 81.9833 1.91176C79.126 1.91176 76.4419 3.01224 74.423 5.01412C72.4012 7.01318 71.2898 9.67082 71.2898 12.5C71.2898 15.3292 72.4012 17.9868 74.423 19.9859C76.4419 21.9878 79.126 23.0882 81.9833 23.0882C84.8406 23.0882 87.5246 21.9878 89.5436 19.9859L90.0476 19.4868L91.0556 20.4849L90.5516 20.984C88.2653 23.2506 85.222 24.5 81.9833 24.5Z" fill="#001A33"/>
<path d="M41.3481 0.5H24.2385V1.91176H41.3481V0.5Z" fill="#001A33"/>
<path d="M41.3481 11.7939H24.2385V13.2057H41.3481V11.7939Z" fill="#001A33"/>
<path d="M41.3481 23.0884H24.2385V24.5001H41.3481V23.0884Z" fill="#001A33"/>
<path d="M61.0447 24.5H62.7129L57.5808 16.0294H57.7447C62.0692 16.0294 65.5866 12.5466 65.5866 8.26471C65.5866 3.98282 62.0692 0.5 57.7447 0.5H47.0513V1.91176H57.7447C61.2814 1.91176 64.1608 4.76282 64.1608 8.26471C64.1608 11.7666 61.2814 14.6176 57.7447 14.6176H47.0513V16.0294H55.9126L61.0447 24.5Z" fill="#001A33"/>
<path d="M103.136 10.3104L97.1908 0.5H95.5283L102.304 11.684L103.136 10.3104Z" fill="#001A33"/>
<path d="M105.509 24.5V14.6205L114.064 0.5H112.401L104.083 14.2287V24.5H105.509Z" fill="#001A33"/>
<path d="M127 0.5H126.287V7.55882H127V0.5Z" fill="#0080FF"/>
<path d="M116.307 7.55882H117.136L120.584 1.87294L122.748 5.44118H120.584H120.228V6.14706H120.584H123.177L124.032 7.55882H124.861L120.584 0.5L116.307 7.55882Z" fill="#0080FF"/>
</svg>
