<svg width="20" height="20" viewBox="0 0 20 20" fill="none" xmlns="http://www.w3.org/2000/svg">
<g clip-path="url(#clip0_351_1288)">
<path d="M18.637 19.6969C18.9299 19.9898 19.4048 19.9898 19.6976 19.6969C19.9905 19.404 19.9905 18.9291 19.6976 18.6363L18.637 19.6969ZM15.182 8.38227C15.182 12.1373 12.138 15.1813 8.383 15.1813V16.6813C12.9664 16.6813 16.682 12.9657 16.682 8.38227H15.182ZM8.383 15.1813C4.62801 15.1813 1.58398 12.1373 1.58398 8.38227H0.0839844C0.0839844 12.9657 3.79958 16.6813 8.383 16.6813V15.1813ZM1.58398 8.38227C1.58398 4.62728 4.62801 1.58325 8.383 1.58325V0.083252C3.79958 0.083252 0.0839844 3.79885 0.0839844 8.38227H1.58398ZM8.383 1.58325C12.138 1.58325 15.182 4.62728 15.182 8.38227H16.682C16.682 3.79885 12.9664 0.083252 8.383 0.083252V1.58325ZM13.2448 14.3048L18.637 19.6969L19.6976 18.6363L14.3055 13.2441L13.2448 14.3048Z" fill="#495768"/>
</g>
<defs>
<clipPath id="clip0_351_1288">
<rect width="20" height="20" fill="white"/>
</clipPath>
</defs>
</svg>
